<!DOCTYPE svg PUBLIC "-//W3C//DTD SVG 1.1//EN" "http://www.w3.org/Graphics/SVG/1.1/DTD/svg11.dtd">

<!-- Uploaded to: SVG Repo, www.svgrepo.com, Transformed by: SVG Repo Mixer Tools -->
<svg version="1.1" id="Layer_1" xmlns="http://www.w3.org/2000/svg" xmlns:xlink="http://www.w3.org/1999/xlink" viewBox="0 0 512 512" xml:space="preserve" width="64px" height="64px" fill="#000000">

<g id="SVGRepo_bgCarrier" stroke-width="0"/>

<g id="SVGRepo_tracerCarrier" stroke-linecap="round" stroke-linejoin="round"/>

<g id="SVGRepo_iconCarrier"> <path style="fill:#ED663E;" d="M256,0C114.616,0,0,114.615,0,256c0,110.155,69.573,204.06,167.175,240.17L496.17,167.176 C460.06,69.574,366.156,0,256,0z"/> <path style="fill:#ED3929;" d="M512,256c0-31.23-5.601-61.149-15.837-88.821l-52.059-52.059l-47.222-26.871L86.023,393.541 l29.097,50.561l52.059,52.059C194.85,506.399,224.77,512,256,512C397.384,512,512,397.384,512,256z"/> <rect x="380.861" y="123.675" transform="matrix(-0.7071 0.7071 -0.7071 -0.7071 792.9941 -58.8588)" style="fill:#430016;" width="55.652" height="22.261"/> <rect x="349.37" y="92.187" transform="matrix(-0.7071 0.7071 -0.7071 -0.7071 716.9702 -90.3447)" style="fill:#59001D;" width="55.652" height="22.261"/> <g> <rect x="401.493" y="54.871" transform="matrix(-0.7071 0.7071 -0.7071 -0.7071 774.6726 -122.0949)" style="fill:#430016;" width="22.261" height="89.043"/> <rect x="106.964" y="397.561" transform="matrix(0.7071 -0.7071 0.7071 0.7071 -249.5096 215.0137)" style="fill:#430016;" width="55.652" height="22.261"/> </g> <rect x="75.495" y="366.074" transform="matrix(0.7071 -0.7071 0.7071 0.7071 -236.4619 183.5394)" style="fill:#59001D;" width="55.652" height="22.261"/> <rect x="88.247" y="368.104" transform="matrix(0.7071 -0.7071 0.7071 0.7071 -262.6632 191.1252)" style="fill:#430016;" width="22.261" height="89.043"/> <path style="fill:#A5150F;" d="M118.268,118.268c-76.067,76.067-76.068,199.397,0,275.464l172.166-103.299l103.299-172.166 C317.665,42.201,194.335,42.201,118.268,118.268z"/> <path style="fill:#740B13;" d="M393.732,118.268L118.268,393.732c76.068,76.068,199.397,76.066,275.464,0 S469.799,194.335,393.732,118.268z"/> <path style="fill:#ED9433;" d="M139.912,139.912c-64.114,64.114-64.114,168.063,0,232.176l145.111-87.067l87.067-145.111 C307.975,75.797,204.025,75.798,139.912,139.912z"/> <path style="fill:#ED663E;" d="M372.088,139.912L139.912,372.088c64.114,64.114,168.063,64.114,232.176,0 S436.203,204.025,372.088,139.912z"/> <rect x="282.902" y="141.84" transform="matrix(-0.7071 -0.7071 0.7071 -0.7071 294.0301 709.864)" style="fill:#430016;" width="22.261" height="304.392"/> <rect x="206.818" y="65.766" transform="matrix(-0.7071 -0.7071 0.7071 -0.7071 217.9382 526.198)" style="fill:#59001D;" width="22.261" height="304.392"/> <rect x="320.568" y="214.913" transform="matrix(-0.7071 -0.7071 0.7071 -0.7071 331.1703 802.063)" style="fill:#430016;" width="22.261" height="235.061"/> <rect x="168.786" y="59.639" transform="matrix(-0.7071 -0.7071 0.7071 -0.7071 179.9144 434.3608)" style="fill:#59001D;" width="22.261" height="240.56"/> <rect x="303.827" y="231.579" transform="matrix(-0.7071 0.7071 -0.7071 -0.7071 760.3779 314.9649)" style="fill:#430016;" width="22.261" height="166.766"/> <rect x="185.903" y="113.655" transform="matrix(-0.7071 0.7071 -0.7071 -0.7071 475.6842 197.0414)" style="fill:#59001D;" width="22.261" height="166.766"/> <g> <rect x="244.855" y="89.228" transform="matrix(-0.7071 -0.7071 0.7071 -0.7071 255.9746 618.0271)" style="fill:#430016;" width="22.261" height="333.543"/> <path style="fill:#430016;" d="M362.25,362.25c28.38-28.38,44.011-66.111,44.011-106.25s-15.63-77.87-44.011-106.25l1.968-17.709 l13.773,1.968c31.222,31.222,50.528,74.359,50.528,121.992c0,95.279-77.24,172.52-172.52,172.52 c-47.632,0-90.77-19.306-121.992-50.528l-1.968-13.773l17.709-1.968c28.38,28.38,66.111,44.011,106.25,44.011 S333.87,390.632,362.25,362.25z"/> </g> <path style="fill:#59001D;" d="M149.75,362.25l-15.741,15.741C102.787,346.77,83.48,303.632,83.48,256 c0-95.279,77.24-172.52,172.52-172.52c47.632,0,90.77,19.306,121.992,50.528l-15.741,15.741 c-28.381-28.38-66.113-44.011-106.251-44.011s-77.87,15.63-106.25,44.011S105.738,215.861,105.738,256S121.368,333.87,149.75,362.25 z"/> </g>

</svg>